<?xml version="1.0" standalone="no"?>
<!DOCTYPE svg PUBLIC "-//W3C//DTD SVG 20010904//EN"
 "http://www.w3.org/TR/2001/REC-SVG-20010904/DTD/svg10.dtd">
<svg version="1.0" xmlns="http://www.w3.org/2000/svg"
 width="200.000000pt" height="200.000000pt" viewBox="0 0 200.000000 200.000000"
 preserveAspectRatio="xMidYMid meet">

<g transform="translate(0.000000,200.000000) scale(0.100000,-0.100000)"
fill="#000000" stroke="none">
<path d="M1945 854 c-27 -29 -58 -54 -69 -54 -12 0 -16 -5 -13 -14 4 -10 1
-13 -9 -9 -8 3 -14 -1 -14 -11 0 -19 -30 -57 -41 -51 -3 3 -30 -18 -59 -45
-29 -28 -57 -50 -62 -50 -5 0 -18 -9 -30 -20 -12 -11 -28 -20 -35 -20 -7 0
-13 -6 -13 -14 0 -8 -16 -20 -35 -26 -19 -6 -35 -15 -35 -20 0 -4 -11 -11 -25
-14 -14 -4 -25 -11 -25 -16 0 -6 -8 -10 -18 -10 -10 0 -27 -6 -38 -14 -15 -11
-22 -12 -33 -3 -12 10 -14 9 -8 -5 3 -10 2 -18 -3 -18 -6 0 -10 5 -10 11 0 5
-5 7 -11 3 -6 -3 -9 -15 -6 -25 3 -11 1 -17 -4 -13 -5 3 -9 13 -9 22 -1 40
-15 36 -17 -4 -1 -29 2 -42 9 -38 7 5 8 2 4 -5 -10 -16 1 -44 92 -234 l76
-157 126 0 c185 0 259 28 322 121 43 65 49 116 46 466 l-3 321 -50 -54z"/>
<path d="M2 400 c4 -218 12 -253 79 -319 61 -61 106 -75 267 -79 l142 -4 64
134 c62 130 81 191 61 195 -6 1 -8 -6 -7 -15 3 -13 1 -14 -10 -4 -11 9 -17 9
-27 -1 -7 -6 -12 -7 -11 -2 6 27 -1 36 -21 30 -16 -5 -19 -4 -14 5 6 9 4 11
-5 5 -7 -4 -16 -2 -21 6 -6 10 -11 11 -19 3 -15 -15 -88 3 -115 28 -11 11 -28
17 -37 14 -10 -2 -18 0 -18 5 0 5 -15 9 -34 9 -19 0 -41 7 -50 15 -8 8 -19 15
-23 15 -5 0 -19 9 -31 21 -12 11 -26 18 -31 15 -9 -6 -52 28 -113 89 l-30 30
4 -195z m597 -120 c11 -24 11 -24 -3 -6 -9 11 -16 24 -16 30 0 12 5 7 19 -24z"/>
<path d="M1073 380 c2 -8 7 -26 11 -40 5 -17 4 -21 -2 -11 -5 7 -15 10 -21 7
-6 -4 -14 -1 -17 7 -6 18 -40 11 -48 -9 -6 -16 -42 -19 -51 -4 -9 14 -48 6
-53 -11 -3 -8 -8 -16 -11 -19 -12 -10 -143 -292 -138 -297 2 -2 119 -2 259 -1
l255 3 -63 130 c-35 72 -63 135 -64 141 0 6 -7 17 -15 24 -8 7 -13 15 -11 19
2 3 -5 22 -16 41 -10 19 -17 28 -15 20z m-133 -55 c0 -7 -30 -13 -34 -7 -3 4
4 9 15 9 10 1 19 0 19 -2z"/>
<path d="M916 363 c-6 -14 -5 -15 5 -6 7 7 10 15 7 18 -3 3 -9 -2 -12 -12z"/>
<path d="M645 349 c-4 -6 -5 -12 -2 -15 2 -3 7 2 10 11 7 17 1 20 -8 4z"/>
</g>
</svg>
